<svg width="339" height="335" viewBox="0 0 339 335" fill="none" xmlns="http://www.w3.org/2000/svg">
<g opacity="0.5">
<path d="M242.325 255.391C209.955 253.116 174.322 206.872 208.256 170.492C230.879 150.57 270.348 174.02 281.002 212.762C292.045 186.627 346.058 120.732 370.67 179.093C387.987 220.158 356.054 236.736 332.66 253.439C331.622 253.788 330.602 254.12 329.601 254.434C348.114 263.985 381.491 299.283 339.001 334.299C323.557 347.026 285.146 330.046 281.287 302.314C275.349 331.417 220.269 363.482 194.121 330.719C169.879 300.346 206.562 269.747 242.325 255.391Z" fill="#DFF0FD" stroke="#DFF0FD"/>
<path d="M126.03 276.564C119.296 292.952 89.1652 303.451 76.0911 279.588C69.6243 264.425 88.5744 248.008 110.523 249.164C98.8436 238.934 73.8841 199.573 108.418 196.876C132.717 194.979 135.849 214.391 140.512 229.398C140.515 229.996 140.512 230.582 140.504 231.155C148.64 223.205 172.699 211.988 183.597 240.051C187.558 250.252 172.15 267.237 157.084 264.456C171.181 272.551 178.387 306.633 156.885 314.54C136.952 321.87 127.352 297.578 126.03 276.564Z" fill="#DFF0FD" stroke="#DFF0FD"/>
<path d="M275.307 114.243C277.775 105.567 292.416 98.5302 300.396 109.853C304.536 117.153 295.89 126.543 284.721 127.215C291.215 131.721 306.095 150.203 288.78 153.545C276.597 155.896 273.901 146.256 270.683 138.931C270.647 138.629 270.615 138.332 270.586 138.042C266.926 142.53 255.398 149.582 248.278 136.01C245.69 131.076 252.511 121.602 260.292 122.146C252.697 118.858 247.1 102.031 257.524 96.7995C267.188 91.9499 273.435 103.688 275.307 114.243Z" fill="#DFF0FD" stroke="#DFF0FD"/>
<path d="M85.2331 319.529C87.701 310.854 102.342 303.817 110.322 315.139C114.462 322.439 105.816 331.83 94.6464 332.501C101.141 337.008 116.021 355.489 98.706 358.831C86.5228 361.183 83.8265 351.542 80.6087 344.218C80.5726 343.916 80.5404 343.619 80.512 343.329C76.8514 347.816 65.3237 354.868 58.2036 341.296C55.6156 336.363 62.4372 326.889 70.2174 327.433C62.6227 324.145 57.0257 307.317 67.4497 302.086C77.1134 297.237 83.361 308.975 85.2331 319.529Z" fill="#DFF0FD" stroke="#DFF0FD"/>
<path d="M31.1275 297.383C34.6618 299.858 40.309 306.212 34.6235 311.826C27.5166 318.844 20.8146 306.412 22.054 302.144C23.2934 297.876 15.0385 313.06 8.03476 304.075C2.43175 296.886 11.8895 293.008 17.3187 291.968C15.0344 288.398 12.2352 280.824 19.3127 279.083C26.3902 277.342 28.4431 283.554 28.5848 286.878C32.3349 283.595 40.7337 278.629 44.3281 285.029C48.8212 293.031 36.6177 298.941 31.1275 297.383Z" fill="#DFF0FD" stroke="#DFF0FD"/>
<path d="M285.701 18.359C288.216 19.4517 292.539 22.6915 289.712 26.9094C286.177 32.1819 280.425 25.2909 280.655 22.476C280.885 19.661 277.672 30.1644 272.17 25.4581C267.768 21.6931 273.166 18.0776 276.414 16.7404C274.539 14.8076 271.834 10.4462 276.02 8.46355C280.206 6.48091 282.273 10.0888 282.784 12.1406C284.702 9.61991 289.301 5.46097 292.352 8.99054C296.166 13.4025 289.317 18.6324 285.701 18.359Z" fill="#DFF0FD" stroke="#DFF0FD"/>
<path d="M317.999 59.6014C321.957 61.3207 328.76 66.4186 324.31 73.0556C318.749 81.3518 309.698 70.5089 310.06 66.0795C310.422 61.6502 305.367 78.1772 296.709 70.7719C289.783 64.8477 298.275 59.1586 303.387 57.0546C300.436 54.0132 296.18 47.1506 302.767 44.0309C309.354 40.9112 312.606 46.5883 313.409 49.8167C316.428 45.8505 323.665 39.3063 328.466 44.8601C334.467 51.8024 323.69 60.0316 317.999 59.6014Z" fill="#DFF0FD" stroke="#DFF0FD"/>
</g>
</svg>
