<svg width="276" height="428" viewBox="0 0 276 428" fill="none" xmlns="http://www.w3.org/2000/svg">
<mask id="mask0_148_3712" style="mask-type:luminance" maskUnits="userSpaceOnUse" x="0" y="0" width="276" height="428">
<path d="M272.441 320.462C271.892 319.166 269.943 315.948 269.714 315.833C269.491 315.589 269.293 315.314 269.023 315.126C269.025 315.118 269.028 315.11 269.03 315.102C269.332 314.006 269.56 312.891 269.68 311.756C269.687 310.075 268.795 308.552 268.278 306.987C265.835 300.717 262.33 294.941 259.003 289.115C256.724 285.168 254.167 281.393 251.291 277.857C250.313 276.759 249.526 275.334 248.288 274.524C246.295 267.26 244.085 259.691 240.142 253.383C243.622 250.3 246.394 246.675 247.746 242.561C249.756 235.065 237.831 227.715 232.573 223.889C229.754 222.045 226.732 220.35 223.563 218.833C223.8 217.078 223.285 215.145 222.731 213.498C220.98 209.1 217.275 205.907 212.947 204.079C212.962 203.757 212.871 203.405 212.839 203.086C212.815 202.272 212.73 201.454 212.612 200.642C211.859 189.762 211.875 178.851 211.346 167.959C210.005 142.2 208.697 116.44 207.423 90.6778C206.972 76.4548 207.256 62.2068 205.738 48.0368C205.675 47.2908 205.606 46.6828 205.535 46.1428C205.35 40.2368 203.217 34.5748 199.907 29.7178C195.685 22.5058 189.794 16.5068 183.505 11.0768C179.847 7.95782 175.851 5.23082 171.63 2.93382C167.931 0.881821 163.668 -0.764182 159.409 0.370818C148.643 3.30282 150.267 11.8508 153.557 20.2138C155.444 25.2378 159.194 31.9998 161.657 34.4138C162.001 34.7048 162.261 35.1028 162.702 35.4318C161.356 36.5948 160.136 37.9678 159.032 39.4258C155.029 44.5598 151.784 50.2178 148.458 55.7988C142.406 65.7008 135.925 75.3338 129.978 85.3018C122.2 98.2808 113.972 110.986 106.236 123.988C100.649 133.83 95.6411 143.989 90.5381 154.088C88.7351 157.653 86.8311 161.166 85.0781 164.757C84.4731 166.166 83.5761 167.533 83.0601 168.981C81.9881 168.894 80.8531 168.996 79.6631 169.343C76.5451 170.105 73.9801 172.465 72.7111 175.359C72.2781 175.136 71.7251 175.013 71.3281 174.884C69.4381 174.312 67.4291 174.038 65.4671 174.344C59.9401 175.1 55.6941 181.146 57.3861 186.576C57.7341 187.74 58.2841 188.895 59.1881 189.725C58.5861 190.272 58.0361 190.87 57.5561 191.51C55.0291 194.969 55.2571 199.812 57.2871 203.445C55.0241 205.474 53.1421 207.923 51.8431 210.551C50.7571 212.763 50.1021 215.331 50.4201 217.8C47.5091 218.945 44.6631 220.242 41.9211 221.707C34.8541 225.695 28.2341 230.853 23.6801 237.649C21.5111 241.114 19.0311 245.415 20.8511 249.533C22.5931 253.163 25.2571 256.075 28.4201 258.444C28.4191 258.446 28.4171 258.447 28.4171 258.449C27.2781 261.526 26.1971 264.623 25.1801 267.742C23.5371 272.803 22.1111 277.97 21.2061 283.219C21.0721 283.301 20.9531 283.401 20.8631 283.53C16.9271 288.794 13.7781 294.63 10.7371 300.445C8.96414 304.3 6.34514 310.323 5.48714 313.164C5.18014 314.18 5.60214 316.215 6.40114 318.631C1.88314 324.283 -2.34486 332.426 1.50614 339.433C2.02814 340.376 2.75814 341.389 3.77114 341.828C3.64914 346.331 5.43014 350.107 10.9521 350.676C13.1071 350.773 15.2671 349.935 16.9551 348.57C17.0681 348.78 17.1731 348.993 17.3031 349.195C19.0261 351.596 22.1551 352.939 25.0761 352.373C27.4341 351.86 29.8141 350.693 31.5081 348.921C32.1221 349.238 32.7411 349.548 33.3641 349.845C34.9201 350.535 36.5341 351.685 38.2461 351.88C44.5741 360.698 52.3251 368.514 61.0401 374.991C60.9641 375.126 60.9151 375.281 60.9061 375.459C61.1331 386.921 61.9231 398.369 63.3321 409.748C63.3641 410.437 63.8881 410.912 64.4251 411.285C64.2261 411.418 64.0301 411.546 63.8441 411.651C61.9041 413.014 60.2061 414.865 59.5501 417.189C58.9751 419.125 59.5081 421.35 60.9611 422.766C64.9051 426.859 71.6251 426.221 76.7681 425.359C83.9721 423.937 94.7551 420.967 99.2501 418.395C99.2761 418.37 99.3091 418.345 99.3421 418.321C107.752 418.32 116.197 417.36 124.311 415.477C124.863 415.032 124.822 414.267 124.878 413.622C125.115 409.462 124.967 405.292 124.849 401.131C124.814 400.023 124.774 398.916 124.733 397.808C133.741 398.703 142.815 398.951 151.854 398.448C154.356 398.312 156.847 398.057 159.331 397.745C159.714 402.25 160.055 406.759 160.462 411.262C160.614 412.144 160.46 413.14 160.87 413.947C161.213 414.381 161.752 414.543 162.259 414.704C168.804 416.342 175.562 417.332 182.346 417.614C182.402 417.665 182.464 417.712 182.519 417.75C182.495 417.735 182.475 417.723 182.443 417.704C182.529 417.772 182.612 417.843 182.696 417.914C182.721 417.937 182.752 417.963 182.79 417.992C182.804 418.004 182.818 418.015 182.832 418.027C182.832 418.026 182.831 418.024 182.83 418.023C183.329 418.387 184.529 419.026 183.81 418.615C190.612 422.4 197.981 425.259 205.669 426.589C211.459 427.381 219.549 428.888 224.302 424.672C226.421 422.726 226.484 419.406 224.912 417.102C223.466 414.779 221.455 412.883 219.468 411.019C221.161 410.158 222.8 409.19 224.402 408.171C224.666 408.012 224.85 407.752 224.977 407.475C225.887 403.294 225.171 398.88 225.278 394.62C225.123 387.473 225.059 380.324 224.842 373.178C224.777 371.303 224.695 369.428 224.603 367.554C230.251 362.281 235.161 356.515 239.202 350.163C239.368 350.136 239.531 350.091 239.681 350.016C239.557 350.045 239.466 350.068 239.388 350.087C239.718 349.997 240.299 349.821 240.549 349.658C242.699 348.729 244.725 347.557 246.64 346.223C246.922 346.409 247.204 346.591 247.423 346.806C249.251 348.102 250.818 349.953 253.054 350.535C255.344 351.095 257.592 349.503 258.531 347.473C258.663 347.23 258.776 346.976 258.878 346.715C261.016 349.104 264.632 350.23 267.42 348.178C268.898 346.964 269.868 345.471 270.442 343.817C270.924 343.59 271.297 343.111 271.979 342.541C274.436 340.174 275.675 336.757 275.824 333.39C275.755 328.902 274.411 324.472 272.441 320.462Z" fill="white"/>
</mask>
<g mask="url(#mask0_148_3712)">
<path d="M272.441 320.462C271.892 319.166 269.943 315.948 269.714 315.833C269.491 315.589 269.293 315.314 269.023 315.126C269.025 315.118 269.028 315.11 269.03 315.102C269.332 314.006 269.56 312.891 269.68 311.756C269.687 310.075 268.795 308.552 268.278 306.987C265.835 300.717 262.33 294.941 259.003 289.115C256.724 285.168 254.167 281.393 251.291 277.857C250.313 276.759 249.526 275.334 248.288 274.524C246.295 267.26 244.085 259.691 240.142 253.383C243.622 250.3 246.394 246.675 247.746 242.561C249.756 235.065 237.831 227.715 232.573 223.889C229.754 222.045 226.732 220.35 223.563 218.833C223.8 217.078 223.285 215.145 222.731 213.498C220.98 209.1 217.275 205.907 212.947 204.079C212.962 203.757 212.871 203.405 212.839 203.086C212.815 202.272 212.73 201.454 212.612 200.642C211.859 189.762 211.875 178.851 211.346 167.959C210.005 142.2 208.697 116.44 207.423 90.6778C206.972 76.4548 207.256 62.2068 205.738 48.0368C205.675 47.2908 205.606 46.6828 205.535 46.1428C205.35 40.2368 203.217 34.5748 199.907 29.7178C195.685 22.5058 189.794 16.5068 183.505 11.0768C179.847 7.95782 175.851 5.23082 171.63 2.93382C167.931 0.881821 163.668 -0.764182 159.409 0.370818C148.643 3.30282 150.267 11.8508 153.557 20.2138C155.444 25.2378 159.194 31.9998 161.657 34.4138C162.001 34.7048 162.261 35.1028 162.702 35.4318C161.356 36.5948 160.136 37.9678 159.032 39.4258C155.029 44.5598 151.784 50.2178 148.458 55.7988C142.406 65.7008 135.925 75.3338 129.978 85.3018C122.2 98.2808 113.972 110.986 106.236 123.988C100.649 133.83 95.6411 143.989 90.5381 154.088C88.7351 157.653 86.8311 161.166 85.0781 164.757C84.4731 166.166 83.5761 167.533 83.0601 168.981C81.9881 168.894 80.8531 168.996 79.6631 169.343C76.5451 170.105 73.9801 172.465 72.7111 175.359C72.2781 175.136 71.7251 175.013 71.3281 174.884C69.4381 174.312 67.4291 174.038 65.4671 174.344C59.9401 175.1 55.6941 181.146 57.3861 186.576C57.7341 187.74 58.2841 188.895 59.1881 189.725C58.5861 190.272 58.0361 190.87 57.5561 191.51C55.0291 194.969 55.2571 199.812 57.2871 203.445C55.0241 205.474 53.1421 207.923 51.8431 210.551C50.7571 212.763 50.1021 215.331 50.4201 217.8C47.5091 218.945 44.6631 220.242 41.9211 221.707C34.8541 225.695 28.2341 230.853 23.6801 237.649C21.5111 241.114 19.0311 245.415 20.8511 249.533C22.5931 253.163 25.2571 256.075 28.4201 258.444C28.4191 258.446 28.4171 258.447 28.4171 258.449C27.2781 261.526 26.1971 264.623 25.1801 267.742C23.5371 272.803 22.1111 277.97 21.2061 283.219C21.0721 283.301 20.9531 283.401 20.8631 283.53C16.9271 288.794 13.7781 294.63 10.7371 300.445C8.96414 304.3 6.34514 310.323 5.48714 313.164C5.18014 314.18 5.60214 316.215 6.40114 318.631C1.88314 324.283 -2.34486 332.426 1.50614 339.433C2.02814 340.376 2.75814 341.389 3.77114 341.828C3.64914 346.331 5.43014 350.107 10.9521 350.676C13.1071 350.773 15.2671 349.935 16.9551 348.57C17.0681 348.78 17.1731 348.993 17.3031 349.195C19.0261 351.596 22.1551 352.939 25.0761 352.373C27.4341 351.86 29.8141 350.693 31.5081 348.921C32.1221 349.238 32.7411 349.548 33.3641 349.845C34.9201 350.535 36.5341 351.685 38.2461 351.88C44.5741 360.698 52.3251 368.514 61.0401 374.991C60.9641 375.126 60.9151 375.281 60.9061 375.459C61.1331 386.921 61.9231 398.369 63.3321 409.748C63.3641 410.437 63.8881 410.912 64.4251 411.285C64.2261 411.418 64.0301 411.546 63.8441 411.651C61.9041 413.014 60.2061 414.865 59.5501 417.189C58.9751 419.125 59.5081 421.35 60.9611 422.766C64.9051 426.859 71.6251 426.221 76.7681 425.359C83.9721 423.937 94.7551 420.967 99.2501 418.395C99.2761 418.37 99.3091 418.345 99.3421 418.321C107.752 418.32 116.197 417.36 124.311 415.477C124.863 415.032 124.822 414.267 124.878 413.622C125.115 409.462 124.967 405.292 124.849 401.131C124.814 400.023 124.774 398.916 124.733 397.808C133.741 398.703 142.815 398.951 151.854 398.448C154.356 398.312 156.847 398.057 159.331 397.745C159.714 402.25 160.055 406.759 160.462 411.262C160.614 412.144 160.46 413.14 160.87 413.947C161.213 414.381 161.752 414.543 162.259 414.704C168.804 416.342 175.562 417.332 182.346 417.614C182.402 417.665 182.464 417.712 182.519 417.75C182.495 417.735 182.475 417.723 182.443 417.704C182.529 417.772 182.612 417.843 182.696 417.914C182.721 417.937 182.752 417.963 182.79 417.992C182.804 418.004 182.818 418.015 182.832 418.027L182.83 418.023C183.329 418.387 184.529 419.026 183.81 418.615C190.612 422.4 197.981 425.259 205.669 426.589C211.459 427.381 219.549 428.888 224.302 424.672C226.421 422.726 226.484 419.406 224.912 417.102C223.466 414.779 221.455 412.883 219.468 411.019C221.161 410.158 222.8 409.19 224.402 408.171C224.666 408.012 224.85 407.752 224.977 407.475C225.887 403.294 225.171 398.88 225.278 394.62C225.123 387.473 225.059 380.324 224.842 373.178C224.777 371.303 224.695 369.428 224.603 367.554C230.251 362.281 235.161 356.515 239.202 350.163C239.368 350.136 239.531 350.091 239.681 350.016C239.557 350.045 239.466 350.068 239.388 350.087C239.718 349.997 240.299 349.821 240.549 349.658C242.699 348.729 244.725 347.557 246.64 346.223C246.922 346.409 247.204 346.591 247.423 346.806C249.251 348.102 250.818 349.953 253.054 350.535C255.344 351.095 257.592 349.503 258.531 347.473C258.663 347.23 258.776 346.976 258.878 346.715C261.016 349.104 264.632 350.23 267.42 348.178C268.898 346.964 269.868 345.471 270.442 343.817C270.924 343.59 271.297 343.111 271.979 342.541C274.436 340.174 275.675 336.757 275.824 333.39C275.755 328.902 274.411 324.472 272.441 320.462Z" fill="#FFD9C4"/>
<path d="M169.998 222.13C177.04 222.13 182.748 218.38 182.748 213.755C182.748 209.129 177.04 205.38 169.998 205.38C162.957 205.38 157.248 209.129 157.248 213.755C157.248 218.38 162.957 222.13 169.998 222.13Z" fill="#FCC1AC"/>
<path d="M96.4021 222.13C103.444 222.13 109.152 218.38 109.152 213.755C109.152 209.129 103.444 205.38 96.4021 205.38C89.3605 205.38 83.6521 209.129 83.6521 213.755C83.6521 218.38 89.3605 222.13 96.4021 222.13Z" fill="#FCC1AC"/>
<path d="M55.9961 429.382C50.6771 423.007 51.5211 412.416 57.7821 406.964C63.0591 402.368 70.5961 401.709 77.5821 401.312C120.903 398.849 164.306 398.153 207.696 397.957C216.684 397.916 227.006 398.513 232.513 405.615C238.178 412.92 235.547 424.234 228.938 430.697C222.328 437.16 212.901 439.769 203.78 441.274C189.224 443.676 174.407 443.884 159.655 444.085C130.8 444.479 101.897 444.872 73.1281 442.622C68.4761 442.258 63.6021 441.747 59.7451 439.122C55.8861 436.495 53.5401 431.04 55.9961 429.382Z" fill="#7DA3C2"/>
<path d="M80.9052 201.611C98.1522 191.694 118.217 186.743 138.098 187.497C157.978 188.251 176.885 187.307 195.349 205.771C202.97 202.52 210.256 202.775 217.682 206.451C231.304 178.025 236.395 145.785 233.664 114.381C230.934 82.9778 220.526 52.4308 204.798 25.1138C198.033 13.3648 190.008 1.89475 178.722 -5.61825C167.436 -13.1312 152.276 -16.0192 140.147 -9.96225C131.953 -5.87025 125.999 1.78675 122.116 10.0818C118.233 18.3768 116.186 27.3858 113.954 36.2688C104.422 74.2068 91.0412 111.176 74.0842 146.426C66.8742 161.414 58.8131 177.012 59.7551 193.618C67.2601 192.823 75.0682 195.724 80.9052 201.611Z" fill="#C3E4FF"/>
<path d="M88.9511 205.367C87.6031 205.121 86.6981 203.728 86.5901 202.361C86.4821 200.994 86.9971 199.66 87.5731 198.416C90.8461 191.348 96.4571 185.388 103.314 181.695C105.561 180.485 107.977 179.502 110.517 179.248C113.057 178.995 115.744 179.532 117.756 181.102C119.768 182.672 120.971 185.365 120.41 187.855C119.738 190.836 116.929 192.769 114.314 194.35C107.188 198.658 99.8191 202.606 92.0691 205.651C91.4031 205.913 90.7121 206.171 89.9971 206.148C89.2821 206.124 88.5301 205.748 88.9511 205.367Z" fill="#EEEEF5"/>
<path d="M152.845 194.819C153.073 194.591 149.268 191.812 148.206 189.763C147.144 187.715 146.821 185.193 147.766 183.088C149.128 180.057 152.808 178.609 156.117 178.904C159.427 179.199 162.438 180.882 165.248 182.654C171.212 186.417 177.06 191.089 179.664 197.642C180.151 198.867 180.519 200.174 180.417 201.488C180.314 202.802 179.672 204.129 178.529 204.786C176.735 205.818 174.488 204.937 172.618 204.051C166.194 201.008 152.845 194.819 152.845 194.819Z" fill="#EEEEF5"/>
<path d="M39.8621 352.073C28.3221 334.857 21.9381 314.233 21.7331 293.508C21.6431 284.419 22.6941 275.16 20.4401 266.354C18.8431 260.114 15.5981 254.129 15.8341 247.693C16.0451 241.951 19.1021 236.578 23.2551 232.607C27.4081 228.636 32.5921 225.916 37.8701 223.644C59.0451 214.532 82.7511 207.382 105.079 221.378C99.9731 229.549 103.382 239.404 110.845 245.499C118.308 251.593 128.889 252.777 138.284 250.636C145.135 249.075 151.839 245.691 155.937 239.983C160.035 234.275 160.937 225.99 158.003 220.495C168.219 214.081 180.66 211.753 192.698 212.512C204.736 213.271 216.432 216.966 227.464 221.845C236.71 225.934 245.851 231.098 251.984 239.134C259.316 248.741 261.489 261.305 262.041 273.378C263.229 299.356 257.779 325.84 244.894 348.428C232.009 371.016 211.494 389.483 187.051 398.358C162.732 407.188 136.076 406.346 110.274 404.432C94.4131 403.255 78.0851 401.572 64.0901 394.017C50.0941 386.462 38.8841 371.572 39.8621 352.073Z" fill="#EEEEF5"/>
<path d="M28.0151 329.525C28.1321 305.542 40.2831 281.917 59.6821 267.974C63.6971 268.112 67.7131 268.25 71.7291 268.389C61.0081 278.812 53.0991 292.101 49.0491 306.495C44.9991 320.889 44.8191 336.352 48.5331 350.837C50.0451 356.734 52.2301 362.545 55.8061 367.472C49.0371 363.101 43.6001 356.903 39.1911 350.158C34.7821 343.412 27.9791 336.886 28.0151 329.525Z" fill="#FCFCFF"/>
<path d="M38.2521 350.454C22.3001 344.841 9.88613 330.185 7.09613 313.577C10.8051 303.539 15.7731 293.966 21.8461 285.155C21.0131 296.512 21.3141 308.012 23.6381 319.16C25.9621 330.308 30.3581 341.116 38.2521 350.454Z" fill="#E8CBCB"/>
<path d="M237.742 349.248C253.184 341.958 264.857 327.149 267.586 310.447C262.73 298.689 257.611 286.545 248.298 277.879C254.248 301.663 250.692 327.686 237.742 349.248Z" fill="#E8CBCB"/>
<path d="M123.44 414.736C103.808 419.471 73.5001 417.036 64.2321 409.071C63.6281 397.504 63.0241 385.937 62.4201 374.37C86.1301 390.761 115.254 399.175 144.052 397.954C172.85 396.733 205.255 388.607 230.895 359.046C233.655 379.733 232.806 402.151 232.806 402.151C208.037 419.377 182.938 417.762 165.639 414.341C158.458 412.921 153.463 412.564 146.206 411.607C138.948 410.651 131.66 412.753 123.44 414.736Z" fill="#E8CBCB"/>
<path d="M54.5741 206.007C61.6061 198.882 73.5711 197.275 82.8381 203.209C86.6781 198.277 90.5171 193.344 94.3571 188.412C96.7791 185.301 93.9651 181.051 90.3641 179.447C88.7791 170.156 78.7161 167.518 70.4631 168.283C62.2101 169.048 54.5741 174.594 51.2941 182.206C48.0141 189.817 49.2281 199.177 54.5741 206.007Z" fill="#E8CBCB"/>
<path d="M215.409 307.337C213.334 306.983 211.216 306.48 209.509 305.247C207.803 304.014 206.591 301.889 206.995 299.823C207.377 297.865 209.112 296.394 211.001 295.753C212.89 295.111 214.932 295.149 216.927 295.194C216.945 293.033 218.682 291.238 220.598 290.24C222.201 289.404 224.182 288.969 225.8 289.777C227.012 290.382 227.818 291.588 228.331 292.842C229.23 295.04 229.376 297.539 228.738 299.826C229.597 299.363 230.676 299.838 231.395 300.496C233.306 302.245 233.776 305.367 232.464 307.601C231.152 309.834 228.196 310.945 225.738 310.128C225.092 314.085 224.415 317.837 220.634 319.174C219.658 319.519 216.287 319.468 215.366 318.995C214.146 318.367 213.742 316.823 213.68 315.452C213.554 312.644 214.334 309.802 215.409 307.337Z" fill="#DFF0FD"/>
<path d="M222.864 334.893C222.714 333.385 222.567 331.835 222.98 330.377C223.394 328.919 224.503 327.555 225.997 327.303C227.501 327.049 229.024 328.008 229.794 329.326C230.564 330.643 230.7 332.241 230.592 333.763C232.51 334.289 234.033 336.033 234.297 338.004C234.561 339.975 233.551 342.058 231.839 343.071C230.128 344.084 227.815 343.967 226.215 342.787C225.418 343.852 224.47 344.837 223.294 345.46C222.118 346.082 220.686 346.307 219.439 345.842C217.231 345.018 216.259 342.142 217.074 339.931C217.891 337.718 220.087 336.232 222.864 334.893Z" fill="#C3E4FF"/>
</g>
<mask id="mask1_148_3712" style="mask-type:luminance" maskUnits="userSpaceOnUse" x="0" y="0" width="276" height="428">
<path d="M272.441 320.462C271.892 319.166 269.943 315.948 269.714 315.833C269.491 315.589 269.293 315.314 269.023 315.126C269.025 315.118 269.028 315.11 269.03 315.102C269.332 314.006 269.56 312.891 269.68 311.756C269.687 310.075 268.795 308.552 268.278 306.987C265.835 300.717 262.33 294.941 259.003 289.115C256.724 285.168 254.167 281.393 251.291 277.857C250.313 276.759 249.526 275.334 248.288 274.524C246.295 267.26 244.085 259.691 240.142 253.383C243.622 250.3 246.394 246.675 247.746 242.561C249.756 235.065 237.831 227.715 232.573 223.889C229.754 222.045 226.732 220.35 223.563 218.833C223.8 217.078 223.285 215.145 222.731 213.498C220.98 209.1 217.275 205.907 212.947 204.079C212.962 203.757 212.871 203.405 212.839 203.086C212.815 202.272 212.73 201.454 212.612 200.642C211.859 189.762 211.875 178.851 211.346 167.959C210.005 142.2 208.697 116.44 207.423 90.6778C206.972 76.4548 207.256 62.2068 205.738 48.0368C205.675 47.2908 205.606 46.6828 205.535 46.1428C205.35 40.2368 203.217 34.5748 199.907 29.7178C195.685 22.5058 189.794 16.5068 183.505 11.0768C179.847 7.95782 175.851 5.23082 171.63 2.93382C167.931 0.881821 163.668 -0.764182 159.409 0.370818C148.643 3.30282 150.267 11.8508 153.557 20.2138C155.444 25.2378 159.194 31.9998 161.657 34.4138C162.001 34.7048 162.261 35.1028 162.702 35.4318C161.356 36.5948 160.136 37.9678 159.032 39.4258C155.029 44.5598 151.784 50.2178 148.458 55.7988C142.406 65.7008 135.925 75.3338 129.978 85.3018C122.2 98.2808 113.972 110.986 106.236 123.988C100.649 133.83 95.6411 143.989 90.5381 154.088C88.7351 157.653 86.8311 161.166 85.0781 164.757C84.4731 166.166 83.5761 167.533 83.0601 168.981C81.9881 168.894 80.8531 168.996 79.6631 169.343C76.5451 170.105 73.9801 172.465 72.7111 175.359C72.2781 175.136 71.7251 175.013 71.3281 174.884C69.4381 174.312 67.4291 174.038 65.4671 174.344C59.9401 175.1 55.6941 181.146 57.3861 186.576C57.7341 187.74 58.2841 188.895 59.1881 189.725C58.5861 190.272 58.0361 190.87 57.5561 191.51C55.0291 194.969 55.2571 199.812 57.2871 203.445C55.0241 205.474 53.1421 207.923 51.8431 210.551C50.7571 212.763 50.1021 215.331 50.4201 217.8C47.5091 218.945 44.6631 220.242 41.9211 221.707C34.8541 225.695 28.2341 230.853 23.6801 237.649C21.5111 241.114 19.0311 245.415 20.8511 249.533C22.5931 253.163 25.2571 256.075 28.4201 258.444C28.4191 258.446 28.4171 258.447 28.4171 258.449C27.2781 261.526 26.1971 264.623 25.1801 267.742C23.5371 272.803 22.1111 277.97 21.2061 283.219C21.0721 283.301 20.9531 283.401 20.8631 283.53C16.9271 288.794 13.7781 294.63 10.7371 300.445C8.96414 304.3 6.34514 310.323 5.48714 313.164C5.18014 314.18 5.60214 316.215 6.40114 318.631C1.88314 324.283 -2.34486 332.426 1.50614 339.433C2.02814 340.376 2.75814 341.389 3.77114 341.828C3.64914 346.331 5.43014 350.107 10.9521 350.676C13.1071 350.773 15.2671 349.935 16.9551 348.57C17.0681 348.78 17.1731 348.993 17.3031 349.195C19.0261 351.596 22.1551 352.939 25.0761 352.373C27.4341 351.86 29.8141 350.693 31.5081 348.921C32.1221 349.238 32.7411 349.548 33.3641 349.845C34.9201 350.535 36.5341 351.685 38.2461 351.88C44.5741 360.698 52.3251 368.514 61.0401 374.991C60.9641 375.126 60.9151 375.281 60.9061 375.459C61.1331 386.921 61.9231 398.369 63.3321 409.748C63.3641 410.437 63.8881 410.912 64.4251 411.285C64.2261 411.418 64.0301 411.546 63.8441 411.651C61.9041 413.014 60.2061 414.865 59.5501 417.189C58.9751 419.125 59.5081 421.35 60.9611 422.766C64.9051 426.859 71.6251 426.221 76.7681 425.359C83.9721 423.937 94.7551 420.967 99.2501 418.395C99.2761 418.37 99.3091 418.345 99.3421 418.321C107.752 418.32 116.197 417.36 124.311 415.477C124.863 415.032 124.822 414.267 124.878 413.622C125.115 409.462 124.967 405.292 124.849 401.131C124.814 400.023 124.774 398.916 124.733 397.808C133.741 398.703 142.815 398.951 151.854 398.448C154.356 398.312 156.847 398.057 159.331 397.745C159.714 402.25 160.055 406.759 160.462 411.262C160.614 412.144 160.46 413.14 160.87 413.947C161.213 414.381 161.752 414.543 162.259 414.704C168.804 416.342 175.562 417.332 182.346 417.614C182.402 417.665 182.464 417.712 182.519 417.75C182.495 417.735 182.475 417.723 182.443 417.704C182.529 417.772 182.612 417.843 182.696 417.914C182.721 417.937 182.752 417.963 182.79 417.992C182.804 418.004 182.818 418.015 182.832 418.027C182.832 418.026 182.831 418.024 182.83 418.023C183.329 418.387 184.529 419.026 183.81 418.615C190.612 422.4 197.981 425.259 205.669 426.589C211.459 427.381 219.549 428.888 224.302 424.672C226.421 422.726 226.484 419.406 224.912 417.102C223.466 414.779 221.455 412.883 219.468 411.019C221.161 410.158 222.8 409.19 224.402 408.171C224.666 408.012 224.85 407.752 224.977 407.475C225.887 403.294 225.171 398.88 225.278 394.62C225.123 387.473 225.059 380.324 224.842 373.178C224.777 371.303 224.695 369.428 224.603 367.554C230.251 362.281 235.161 356.515 239.202 350.163C239.368 350.136 239.531 350.091 239.681 350.016C239.557 350.045 239.466 350.068 239.388 350.087C239.718 349.997 240.299 349.821 240.549 349.658C242.699 348.729 244.725 347.557 246.64 346.223C246.922 346.409 247.204 346.591 247.423 346.806C249.251 348.102 250.818 349.953 253.054 350.535C255.344 351.095 257.592 349.503 258.531 347.473C258.663 347.23 258.776 346.976 258.878 346.715C261.016 349.104 264.632 350.23 267.42 348.178C268.898 346.964 269.868 345.471 270.442 343.817C270.924 343.59 271.297 343.111 271.979 342.541C274.436 340.174 275.675 336.757 275.824 333.39C275.755 328.902 274.411 324.472 272.441 320.462Z" fill="white"/>
</mask>
<g mask="url(#mask1_148_3712)">
<path d="M58.7361 266.874C57.9821 267.461 57.2621 268.235 56.6671 268.628C53.5951 271.276 50.7121 274.148 48.0391 277.198C36.4851 290.977 27.4501 307.967 27.3501 326.313C27.4111 329.006 27.4431 331.781 28.2491 334.369C28.5071 334.86 28.3761 335.454 29.3711 335.8C29.9571 335.945 30.7801 335.619 30.7991 334.941C27.8781 316.633 34.8851 298.121 47.7651 281.586C51.5951 276.692 54.8751 273.353 59.6151 269.363C60.2701 268.592 62.0511 268.06 61.6781 266.902C60.6971 266.888 59.7161 266.882 58.7361 266.874Z" fill="#D4CFDE"/>
<path d="M70.3461 267.042C69.7021 267.7 69.0551 268.354 68.4251 269.025C64.2931 273.396 60.5191 278.12 57.4051 283.274C52.5511 291.221 48.5131 299.763 46.1271 308.785C42.3841 323.695 42.8141 339.688 47.6221 354.306C49.0861 358.711 50.7451 363.117 53.2931 367.023C53.8681 368.004 55.3911 369.865 55.5051 369.932C55.9751 370.394 56.4321 371.021 57.1561 370.998C57.8641 371.037 58.6681 370.305 58.1601 369.616C57.5271 368.743 54.7311 364.531 54.4061 363.813C52.0911 359.339 50.4621 354.532 49.1081 349.689C44.4271 332.223 45.6971 312.886 53.6641 295.96C56.7751 289.14 60.1031 283.272 64.9131 276.988C67.4971 273.651 70.9701 269.912 73.2561 267.626C73.4391 267.484 73.5771 267.289 73.6351 267.069C72.5391 267.063 71.4421 267.058 70.3461 267.042Z" fill="#D4CFDE"/>
<path d="M103.267 229.126C98.2401 226.533 92.4031 225.332 86.8491 224.216C64.5491 221.25 39.0681 225.356 23.2731 242.625C22.4131 243.543 21.5971 244.504 20.8161 245.491C20.9711 246.196 21.1151 246.904 21.2521 247.614C21.3531 248.043 21.4531 248.472 21.5551 248.901C23.5331 245.944 26.1001 243.154 28.4871 240.976C37.5281 232.615 47.9761 228.669 60.0111 226.606C66.8941 225.408 77.4941 225.252 84.1041 226.058C90.7531 226.915 96.2101 228.714 101.875 230.768C102.761 230.966 103.922 230.016 103.267 229.126Z" fill="#D4CFDE"/>
<path d="M245.74 236.307C244.467 235.502 243.178 234.722 241.878 233.966C230.737 227.539 218.14 223.873 205.484 221.898C191.561 219.893 177.238 221.769 164.187 226.965C162.576 227.618 160.961 228.319 159.366 229.074C159.405 229.722 159.352 230.367 159.122 230.959C159.113 231.252 159.094 231.545 159.08 231.838C164.718 228.887 170.82 226.791 177.094 225.312C191.15 221.947 204.666 223.008 218.966 227.079C228.933 229.778 238.622 234.014 247.077 240.151C246.624 238.872 246.186 237.589 245.74 236.307Z" fill="#D4CFDE"/>
<path d="M234.738 266.841C232.909 264.672 231.003 262.554 228.875 260.673C228.474 260.369 228.061 259.957 227.618 259.625C227.578 259.636 227.539 259.66 227.5 259.667C227.019 259.763 226.534 259.854 226.048 259.941C225.789 259.989 225.531 260.04 225.273 260.087C225.152 260.109 225.032 260.132 224.911 260.154C224.893 260.449 225.003 260.747 225.298 260.955C239.431 272.719 248.597 292.665 250.364 311.059C250.422 311.693 250.452 312.33 250.498 312.965C250.983 309.652 251.48 306.34 251.94 303.024C249.277 289.79 243.417 277.191 234.738 266.841Z" fill="#D4CFDE"/>
</g>
<path d="M233.619 334.037C233.085 333.574 232.528 332.985 231.869 332.678C231.927 331.78 231.839 330.879 231.554 330.026C230.714 327.716 228.273 325.91 225.765 326.468C222.811 327.097 221.343 330.198 221.299 332.998C221.329 333.54 221.255 334.177 221.299 334.771C220.596 334.968 219.889 335.314 219.307 335.52C215.294 337.255 214.241 343.725 218.002 346.239C220.677 347.725 224.073 346.645 226.295 344.555C227.241 345.181 228.474 345.432 229.583 345.352C231.767 345.2 233.769 343.819 234.815 341.914C236.362 339.417 235.785 335.988 233.619 334.037ZM232.451 340.716C230.823 343.637 228.863 343.31 228.092 342.872C228.011 342.816 227.937 342.752 227.863 342.687C227.849 342.67 227.835 342.653 227.82 342.634C227.924 342.45 228.024 342.264 228.109 342.074C228.323 341.556 228.593 340.882 228.303 340.352C227.776 339.295 225.699 339.508 225.63 340.777C224.998 343.824 220.838 345.209 219.833 344.596C217.834 343.329 218.011 338.961 220.42 337.573C220.43 337.566 220.441 337.56 220.452 337.553C220.686 337.442 221.501 337.039 221.743 336.999C221.685 337.02 221.654 337.03 221.615 337.044C221.657 337.031 221.695 337.019 221.756 337.002C222.352 336.794 223.097 336.819 223.504 336.265C223.51 336.257 223.512 336.248 223.517 336.24C223.881 336.065 224.156 335.758 224.181 335.312C223.955 334.582 224.178 331.61 224.178 332.02C224.685 329.174 226.118 328.543 226.845 328.578C228.078 328.736 230.281 331.237 228.335 335.34C228.156 335.624 228.011 335.945 228.144 336.28C228.532 337.263 230.082 337.349 230.697 336.544C230.928 336.134 231.124 335.698 231.295 335.25C231.439 335.37 231.581 335.493 231.695 335.64C232.848 336.691 233.306 339.28 232.451 340.716Z" fill="#797979"/>
<path d="M272.441 320.462C271.892 319.166 269.943 315.948 269.714 315.833C269.491 315.589 269.293 315.314 269.023 315.126C269.025 315.118 269.028 315.11 269.03 315.102C269.332 314.006 269.56 312.891 269.68 311.756C269.687 310.075 268.795 308.552 268.278 306.987C265.835 300.717 262.33 294.941 259.003 289.115C256.724 285.168 254.167 281.393 251.291 277.857C250.313 276.759 249.526 275.334 248.288 274.524C246.295 267.26 244.085 259.691 240.142 253.383C243.622 250.3 246.394 246.675 247.746 242.561C249.756 235.065 237.831 227.715 232.573 223.889C229.754 222.045 226.732 220.35 223.563 218.833C223.8 217.078 223.285 215.145 222.731 213.498C220.98 209.1 217.275 205.907 212.947 204.079C212.962 203.757 212.871 203.405 212.839 203.086C212.815 202.272 212.73 201.454 212.612 200.642C211.859 189.762 211.875 178.851 211.346 167.959C210.005 142.2 208.697 116.44 207.423 90.6778C206.972 76.4548 207.256 62.2068 205.738 48.0368C205.675 47.2908 205.606 46.6828 205.535 46.1428C205.35 40.2368 203.217 34.5748 199.907 29.7178C195.685 22.5058 189.794 16.5068 183.505 11.0768C179.847 7.95782 175.851 5.23082 171.63 2.93382C167.931 0.881821 163.668 -0.764182 159.409 0.370818C148.643 3.30282 150.267 11.8508 153.557 20.2138C155.444 25.2378 159.194 31.9998 161.657 34.4138C162.001 34.7048 162.261 35.1028 162.702 35.4318C161.356 36.5948 160.136 37.9678 159.032 39.4258C155.029 44.5598 151.784 50.2178 148.458 55.7988C142.406 65.7008 135.925 75.3338 129.978 85.3018C122.2 98.2808 113.972 110.986 106.236 123.988C100.649 133.83 95.6411 143.989 90.5381 154.088C88.7351 157.653 86.8311 161.166 85.0781 164.757C84.4731 166.166 83.5761 167.533 83.0601 168.981C81.9881 168.894 80.8531 168.996 79.6631 169.343C76.5451 170.105 73.9801 172.465 72.7111 175.359C72.2781 175.136 71.7251 175.013 71.3281 174.884C69.4381 174.312 67.4291 174.038 65.4671 174.344C59.9401 175.1 55.6941 181.146 57.3861 186.576C57.7341 187.74 58.2841 188.895 59.1881 189.725C58.5861 190.272 58.0361 190.87 57.5561 191.51C55.0291 194.969 55.2571 199.812 57.2871 203.445C55.0241 205.474 53.1421 207.923 51.8431 210.551C50.7571 212.763 50.1021 215.331 50.4201 217.8C47.5091 218.945 44.6631 220.242 41.9211 221.707C34.8541 225.695 28.2341 230.853 23.6801 237.649C21.5111 241.114 19.0311 245.415 20.8511 249.533C22.5931 253.163 25.2571 256.075 28.4201 258.444C28.4191 258.446 28.4171 258.447 28.4171 258.449C27.2781 261.526 26.1971 264.623 25.1801 267.742C23.5371 272.803 22.1111 277.97 21.2061 283.219C21.0721 283.301 20.9531 283.401 20.8631 283.53C16.9271 288.794 13.7781 294.63 10.7371 300.445C8.96414 304.3 6.34514 310.323 5.48714 313.164C5.18014 314.18 5.60214 316.215 6.40114 318.631C1.88314 324.283 -2.34486 332.426 1.50614 339.433C2.02814 340.376 2.75814 341.389 3.77114 341.828C3.64914 346.331 5.43014 350.107 10.9521 350.676C13.1071 350.773 15.2671 349.935 16.9551 348.57C17.0681 348.78 17.1731 348.993 17.3031 349.195C19.0261 351.596 22.1551 352.939 25.0761 352.373C27.4341 351.86 29.8141 350.693 31.5081 348.921C32.1221 349.238 32.7411 349.548 33.3641 349.845C34.9201 350.535 36.5341 351.685 38.2461 351.88C44.5741 360.698 52.3251 368.514 61.0401 374.991C60.9641 375.126 60.9151 375.281 60.9061 375.459C61.1331 386.921 61.9231 398.369 63.3321 409.748C63.3641 410.437 63.8881 410.912 64.4251 411.285C64.2261 411.418 64.0301 411.546 63.8441 411.651C61.9041 413.014 60.2061 414.865 59.5501 417.189C58.9751 419.125 59.5081 421.35 60.9611 422.766C64.9051 426.859 71.6251 426.221 76.7681 425.359C83.9721 423.937 94.7551 420.967 99.2501 418.395C99.2761 418.37 99.3091 418.345 99.3421 418.321C107.752 418.32 116.197 417.36 124.311 415.477C124.863 415.032 124.822 414.267 124.878 413.622C125.115 409.462 124.967 405.292 124.849 401.131C124.814 400.023 124.774 398.916 124.733 397.808C133.741 398.703 142.815 398.951 151.854 398.448C154.356 398.312 156.847 398.057 159.331 397.745C159.714 402.25 160.055 406.759 160.462 411.262C160.614 412.144 160.46 413.14 160.87 413.947C161.213 414.381 161.752 414.543 162.259 414.704C168.804 416.342 175.562 417.332 182.346 417.614C182.402 417.665 182.464 417.712 182.519 417.75C182.495 417.735 182.475 417.723 182.443 417.704C182.529 417.772 182.612 417.843 182.696 417.914C182.721 417.937 182.752 417.963 182.79 417.992C182.804 418.004 182.818 418.015 182.832 418.027C182.832 418.026 182.831 418.024 182.83 418.023C183.329 418.387 184.529 419.026 183.81 418.615C190.612 422.4 197.981 425.259 205.669 426.589C211.459 427.381 219.549 428.888 224.302 424.672C226.421 422.726 226.484 419.406 224.912 417.102C223.466 414.779 221.455 412.883 219.468 411.019C221.161 410.158 222.8 409.19 224.402 408.171C224.666 408.012 224.85 407.752 224.977 407.475C225.887 403.294 225.171 398.88 225.278 394.62C225.123 387.473 225.059 380.324 224.842 373.178C224.777 371.303 224.695 369.428 224.603 367.554C230.251 362.281 235.161 356.515 239.202 350.163C239.368 350.136 239.531 350.091 239.681 350.016C239.557 350.045 239.466 350.068 239.388 350.087C239.718 349.997 240.299 349.821 240.549 349.658C242.699 348.729 244.725 347.557 246.64 346.223C246.922 346.409 247.204 346.591 247.423 346.806C249.251 348.102 250.818 349.953 253.054 350.535C255.344 351.095 257.592 349.503 258.531 347.473C258.663 347.23 258.776 346.976 258.878 346.715C261.016 349.104 264.632 350.23 267.42 348.178C268.898 346.964 269.868 345.471 270.442 343.817C270.924 343.59 271.297 343.111 271.979 342.541C274.436 340.174 275.675 336.757 275.824 333.39C275.755 328.902 274.411 324.472 272.441 320.462ZM225.882 222.557C230.284 224.991 235.418 228.582 239.868 232.536C243.517 235.779 246.656 239.25 244.451 243.798C241.342 250.276 234.156 255.653 227.007 259.003C220.08 262.279 211.945 263.768 204.607 264.249C189.479 265.399 176.757 261.712 163.093 255.002C158.763 253.079 155.519 250.162 151.317 247.181C156.84 243.481 160.733 237.299 161.179 230.626C161.353 227.449 160.615 224.215 159.028 221.455C161.331 219.717 164.905 218.361 168.262 217.031C172.212 215.591 177.785 213.87 183.005 213.322C196.584 211.734 212.644 215.519 225.882 222.557ZM116.757 215.624C116.782 215.619 116.812 215.61 116.836 215.606C116.893 215.586 116.931 215.571 116.974 215.554C117.507 215.413 117.327 215.692 118.23 215.206C119.098 214.572 118.245 213.424 117.346 213.52C115.179 213.179 109.232 215.614 106.002 218.558C105.591 218.928 105.205 219.321 104.837 219.73C98.7081 216.039 89.8301 213.39 81.9631 212.602C78.7951 212.393 75.6151 212.427 72.4461 212.666C74.6921 210.341 78.0721 207.159 81.3741 204.604C82.3041 203.797 83.5621 202.909 84.7501 202.086C84.7731 202.436 84.8231 202.774 84.9351 203.083C85.5981 205.316 87.6791 206.816 90.0041 206.78C95.0811 206.659 99.1571 203.009 103.712 201.176C108.536 198.869 113.462 196.65 117.776 193.448C119.25 192.326 120.529 190.95 121.214 189.301C128.955 187.919 138.286 188.529 146.364 190.025C146.455 190.047 146.544 190.059 146.631 190.067C147.361 191.379 148.457 192.505 149.697 193.448C154.01 196.65 158.937 198.869 163.761 201.176C168.316 203.009 172.392 206.659 177.469 206.78C179.793 206.816 181.874 205.316 182.538 203.083C183.174 201.329 182.291 198.844 180.855 196.343C187.452 199.907 193.584 205.119 197.995 211.313C190.322 210.386 182.621 210.658 175.462 212.453C169.694 213.995 163.944 215.889 158.715 218.812C158.414 219.031 158.032 219.235 157.662 219.46C157.027 218.734 156.417 217.737 155.379 217.731C154.362 217.64 153.447 218.879 154.396 219.606C156.345 221.345 158.416 225.577 158.393 228.771C158.811 236.232 153.795 243.433 147.971 246.444C142.932 248.993 137.058 249.806 131.695 250.136C128.168 250.24 126.378 249.915 122.758 249.192C119.273 248.416 117.322 247.994 114.427 246.595C108.913 244.065 105.077 239.492 103.462 232.894C102.792 230.025 103.928 225.343 105.791 222.689C107.177 220.467 109.431 218.857 110.937 217.966C111.838 217.383 114.925 215.974 116.717 215.631C116.712 215.634 116.707 215.636 116.702 215.639C116.725 215.634 116.737 215.631 116.757 215.624ZM89.5531 196.621C90.4541 195.176 91.5331 193.698 92.6031 192.275C96.6741 187.152 104.081 181.867 109.143 180.249C109.874 180.107 110.59 180.023 111.28 180.02C113.933 180.12 115.221 180.199 117.144 181.831C118.464 182.877 119.516 186.286 118.679 188.455C117.826 190.962 114.258 193.064 111.643 194.604C105.495 197.89 99.1441 200.799 92.9431 203.978C90.6701 204.847 88.8851 204.909 88.0031 203.405C87.7281 201.413 88.3341 199.059 89.5531 196.621ZM150.332 181.831C152.255 180.2 153.543 180.12 156.196 180.02C156.887 180.023 157.603 180.107 158.333 180.249C163.395 181.867 170.803 187.153 174.873 192.275C175.943 193.698 177.022 195.176 177.923 196.621C179.142 199.059 179.748 201.413 179.472 203.404C178.59 204.907 176.805 204.846 174.532 203.977C168.331 200.799 161.98 197.89 155.832 194.603C153.217 193.063 149.649 190.96 148.796 188.454C147.96 186.286 149.012 182.877 150.332 181.831ZM214.347 207.436C218.028 209.751 220.291 213.192 220.725 216.679C220.798 216.949 220.806 217.257 220.8 217.577C214.644 214.902 208.023 212.896 201.313 211.785C201.248 211.695 201.179 211.593 201.098 211.456C199.633 209.439 198.339 207.752 197.045 206.232C201.949 203.52 209.504 204.133 214.347 207.436ZM93.5381 154.064C98.2631 144.683 102.893 135.421 107.622 126.901C117.49 110.218 127.97 93.8988 137.986 77.3018C143.315 68.8158 148.881 60.4758 153.907 51.8018C156.827 47.0088 159.801 42.1698 163.614 38.0258C166.241 35.2858 168.817 33.6178 173.326 34.3418C174.24 34.4568 179.668 35.5108 181.075 36.3278C182.561 36.9128 184.012 37.5818 185.429 38.3168C186.061 38.6008 186.903 38.4888 187.34 37.9208C188.23 36.3268 185.455 35.9268 184.525 35.2848C180.962 33.6758 177.168 32.5038 173.266 32.1288C169.9 31.5388 166.988 32.4178 164.466 34.0888C160.093 28.9378 154.681 18.5158 153.866 10.7508C153.223 5.05982 158.07 2.30582 162.374 2.20482C164.965 2.14182 167.142 3.23182 170.447 4.94982C175.607 7.71082 181.128 11.9468 185.956 16.6528C191.959 22.2168 197.845 29.9228 200.995 37.4598C202.1 40.5768 202.536 42.5458 202.723 45.5408C202.777 46.2188 202.788 46.9428 202.989 47.5968C202.99 47.6138 202.991 47.6318 202.992 47.6488C202.99 47.6688 202.991 47.6948 202.997 47.7358C203.358 52.9258 203.844 58.1098 204.06 63.3108C204.359 72.5358 204.305 81.7708 204.653 90.9948C205.861 113.977 206.889 136.967 208.155 159.946C208.793 170.292 208.978 180.655 209.292 191.013C209.535 195.021 209.585 199.103 210.071 203.068C207.727 202.439 205.292 202.183 202.942 202.348C200.363 202.605 197.705 203.156 195.421 204.425C193.728 202.623 191.925 200.985 189.645 199.186C186.886 197.086 183.907 195.27 180.821 193.693C180.165 193.443 179.408 192.973 178.645 192.676C178.369 192.266 178.098 191.848 177.812 191.453C173.562 185.961 167.019 180.065 159.873 178.342C159.117 178.106 158.429 177.977 157.841 177.983C156.891 177.865 155.935 177.81 154.974 177.861C149.828 178.025 145.744 181.169 145.726 186.562C145.717 186.94 145.742 187.305 145.792 187.661C139.629 186.555 133.34 186.203 127.087 186.442C125.327 186.573 123.483 186.569 121.728 186.886C121.731 186.777 121.749 186.673 121.746 186.562C121.727 181.169 117.643 178.024 112.498 177.861C111.537 177.81 110.581 177.865 109.631 177.983C109.042 177.977 108.355 178.106 107.599 178.342C103.73 179.276 100.04 181.437 96.7931 184.09C96.6361 183.778 96.4901 183.486 96.4051 183.24C95.5411 181.423 94.1041 179.932 92.3781 178.958C91.7031 174.917 89.2581 171.171 85.7521 169.658C88.0511 164.323 90.9661 159.27 93.5381 154.064ZM66.2401 188.756C67.0391 188.678 67.3841 188.533 68.5161 188.822C70.1451 189.364 71.3361 187.257 69.3811 186.731C66.5861 186.052 63.6581 186.728 61.2121 188.211C59.4741 186.434 59.2651 182.097 61.2341 179.668C63.6921 175.926 67.7681 175.925 71.2781 177.228C71.5171 177.339 71.7911 177.383 72.0621 177.371C71.7671 178.779 71.7701 180.248 72.1651 181.681C72.6271 182.999 75.2461 182.613 74.8591 181.094C73.1901 173.073 82.6761 168.041 86.9451 173.421C88.1091 174.817 88.7391 176.139 89.2721 177.862C88.9081 177.805 88.5421 177.759 88.1701 177.748C84.3801 177.746 80.7051 179.775 78.2621 182.604C77.8501 183.198 77.0571 183.835 77.2741 184.624C77.6631 185.607 79.2121 185.693 79.8271 184.888C81.6891 181.8 85.3561 180.152 87.4881 179.967C89.3441 179.955 90.1961 180.248 91.6861 181.334C92.6591 182.086 93.5321 183.376 93.9921 184.395C94.2781 184.887 94.4191 185.462 94.6161 185.999C92.7531 187.75 91.0771 189.622 89.6611 191.453C89.2451 192.029 88.8401 192.626 88.4481 193.234C86.5581 191.001 84.0471 189.236 81.2761 188.339C79.6491 187.953 78.6701 189.978 80.5331 190.467C81.9001 190.82 85.1701 193.004 86.4291 194.791C86.7811 195.214 86.9061 195.462 87.0301 195.644C86.3731 196.716 85.8081 197.795 85.3991 198.829C84.1601 199.576 82.9701 200.4 81.7991 201.252C81.0611 200.819 80.1241 200.471 79.6731 200.203C77.8681 199.379 75.9751 198.726 74.0271 198.352C73.9241 198.141 73.8161 197.931 73.7521 197.727C73.0541 196.281 72.7551 194.113 72.8501 193.92C72.8421 193.825 72.8101 193.622 72.7841 193.475C72.8111 193.149 72.6871 192.824 72.4181 192.628C71.7331 192.064 70.3091 192.332 70.2521 193.337C69.8631 194.079 70.2771 196.241 70.9431 198.022C66.8251 197.896 62.8271 199.341 59.4371 201.735C58.7571 200.093 58.4791 198.915 58.4841 197.195C58.5611 192.746 62.1421 189.39 66.2401 188.756ZM62.9891 202.313C68.1311 199.383 72.5261 199.694 77.6401 201.827C78.3451 202.125 79.0291 202.467 79.7051 202.826C78.0661 204.118 76.4741 205.471 74.9091 206.841C72.8281 208.766 70.6761 210.696 69.0071 213C63.5861 213.675 58.2371 214.986 53.0781 216.807C53.1811 210.523 58.2651 205.037 62.9891 202.313ZM23.0221 247.222C22.5021 242.654 28.0501 235.371 32.1631 231.663C44.9111 220.048 62.4701 214.491 79.2621 214.647C85.0431 214.719 91.9631 216.576 97.2661 218.63C99.3181 219.364 101.82 220.616 103.454 221.522C101.59 224.279 100.541 227.582 100.487 230.919C100.525 234.239 101.953 237.414 103.592 240.243C105.664 243.967 109.171 246.598 112.935 248.458C113.084 248.527 113.238 248.584 113.387 248.651C113.199 248.833 113.019 249.031 112.831 249.207C111.523 250.486 110.213 251.765 108.864 253.001C105.509 256.006 102.917 257.912 99.2711 259.638C81.7341 267.756 62.4231 268.883 43.4901 263.305C35.8641 260.678 25.2381 255.735 23.0221 247.222ZM4.13514 338.654C3.53114 337.584 2.96614 336.138 2.93814 335.362C2.26914 331.558 3.91214 327.391 5.45114 324.668C5.99614 323.556 6.73314 322.549 7.47114 321.553C8.11314 323.173 8.84814 324.846 9.59214 326.421C9.27414 326.616 9.00714 326.9 8.88214 327.277C6.99114 329.957 4.95114 334.372 4.13514 338.654ZM6.96514 345.063C5.56414 340.784 7.97314 333.796 10.2951 329.978C10.4201 329.668 10.6421 329.348 10.8751 329.024C11.0841 329.428 11.2901 329.821 11.4901 330.192C12.7391 332.581 14.2441 334.783 15.9421 336.818C15.5941 337.808 15.6571 339.112 15.5061 340.078C15.4541 342.03 15.4991 344.078 15.9691 345.997C13.2911 349.324 8.29714 349.577 6.96514 345.063ZM24.6101 350.193C23.4951 350.317 23.7361 350.425 22.3531 350.075C22.1171 349.958 21.6381 349.733 21.4111 349.63C18.3911 347.944 18.0671 343.415 18.3781 339.491C21.5651 342.697 25.2611 345.408 29.2111 347.667C27.9511 348.965 26.2871 349.735 24.6101 350.193ZM32.2181 346.637C32.0671 346.505 31.8741 346.405 31.6641 346.338C26.8841 343.684 22.5971 340.496 19.3411 336.891C16.7701 334.182 14.1991 329.735 12.9511 327.354C11.3431 324.169 9.70614 320.945 8.83314 317.468C8.54114 316.249 8.41914 315.519 8.33314 314.301C8.47514 313.917 8.47514 313.455 8.60314 313.07C10.8361 304.92 14.6141 298.629 18.6251 291.684C19.1891 290.666 19.8201 289.678 20.4641 288.7C20.3621 289.78 20.2841 290.864 20.2381 291.95C19.9021 304.88 21.8311 317.996 26.4591 330.1C28.9281 336.574 32.1311 342.736 35.9301 348.513C34.6651 347.928 33.4311 347.295 32.2181 346.637ZM65.0181 422.814C61.8781 421.423 60.8951 417.882 64.0761 414.64C63.5811 415.019 65.4551 413.406 65.9111 413.134C66.0131 413.067 66.2101 412.941 66.3311 412.862C66.4711 412.778 66.6111 412.695 66.7541 412.615C67.6581 413.069 68.5861 413.478 69.5281 413.842C76.0191 416.273 82.8771 417.476 89.7781 417.909C91.1811 418.035 92.5891 418.131 94.0011 418.201C92.2101 418.913 90.3621 419.656 89.0351 419.969C80.5111 422.287 71.1801 425.386 65.0181 422.814ZM122.068 413.801C110.428 415.916 99.6411 416.867 87.3751 415.498C80.8951 414.978 71.1021 412.946 66.0521 409.462C65.9891 407.878 64.6541 397.309 64.4331 392.4C64.1181 387.247 63.8681 382.087 63.7381 376.925C65.7851 378.35 67.8771 379.708 70.0161 380.984C85.7141 390.522 103.741 395.52 121.905 397.512C121.919 398.152 122.014 398.851 121.998 399.419C122.131 403.727 122.3 408.04 122.146 412.35C122.193 412.571 122.12 413.3 122.068 413.801ZM222.534 418.262C227.056 428.265 207.271 425.544 197.743 422.305C195.155 421.584 190.777 419.544 186.994 417.7C197.229 417.623 207.426 415.857 216.961 412.137C217.608 412.755 218.461 413.354 218.801 413.81C219.862 414.845 221.349 416.332 222.534 418.262ZM222.356 406.736C221.166 407.335 216.179 410.394 212.848 411.308C197.758 416.318 179.937 416.845 163.628 412.751C163.542 412.729 163.458 412.702 163.372 412.678C163.289 411.702 163.081 409.23 162.978 408.109C162.603 404.561 162.498 400.938 162.048 397.411C173.297 396.081 184.406 393.242 194.55 388.125C204.834 382.836 214.037 376.838 221.928 369.964C221.999 371.592 222.064 373.22 222.108 374.849C222.288 381.92 222.369 388.992 222.519 396.064C222.591 399.286 222.752 405.611 222.356 406.736ZM203.346 380.537C194.334 386.244 182.877 391.429 171.815 393.611C171.584 393.664 171.341 393.716 171.095 393.767C170.883 393.71 170.656 393.7 170.443 393.758C168.099 394.143 164.953 394.718 161.932 395.194C160.281 395.403 158.83 395.572 157.858 395.69C156.478 395.958 154.683 395.836 153.28 396.167C143.13 396.878 131.168 396.389 122.648 395.39C95.6311 392.48 70.9831 382.998 51.6901 363.689C47.5061 359.479 42.0611 353.185 38.2061 347.353C34.4291 341.514 31.8741 336.336 29.2001 329.654C25.8741 321.05 24.2261 312.944 23.4261 304.242C22.2091 292.982 23.3741 282.853 26.6111 272.38C27.7331 268.194 29.4221 264.119 30.7041 260.006C35.7241 263.163 41.6391 265.203 47.1071 266.654C65.4851 270.887 85.5381 269.332 102.428 260.649C107.073 258.199 110.936 254.592 114.64 250.923C115.001 250.482 115.59 250.14 115.88 249.649C120.124 251.175 124.654 251.966 129.126 252.331C134.956 252.445 140.866 251.548 146.384 249.656C147.336 249.329 148.26 248.928 149.154 248.468C149.675 249.116 150.638 249.5 151.206 250.088C156.213 254.227 161.938 257.33 167.94 259.769C174 262.198 180.208 264.465 186.65 265.621C197.942 267.386 209.681 266.853 220.7 263.766C226.355 262.114 232.861 259.127 238.177 255.004C241.968 262.086 245.185 272.386 247.1 281.106C251.546 301.029 250.155 323.375 240.554 342.449C233.018 358.141 218.866 370.807 203.346 380.537ZM241.823 346.549C241.607 346.684 241.383 346.805 241.157 346.918C247.882 335.178 251.802 321.542 252.297 305.564C252.572 296.934 251.495 288.305 249.635 279.882C253.16 284.517 256.299 289.431 259.079 294.56C262.127 299.883 264.66 304.567 266.764 310.763C267.2 311.987 266.491 314.232 265.66 316.566C262.825 323.953 258.835 330.41 253.352 336.786C250.305 340.272 245.715 344.479 241.823 346.549ZM254.151 348.438C254.067 348.442 253.983 348.438 253.899 348.434C253.872 348.429 253.864 348.428 253.829 348.421C253.189 348.412 250.724 346.27 248.68 344.699C249.161 344.312 249.647 343.933 250.11 343.523C252.095 341.8 253.94 339.931 255.675 337.964C256.239 339.518 256.793 341.404 256.724 342.901C256.839 345.744 255.364 348.188 254.151 348.438ZM268.269 341.237C267.014 346.887 264.396 348.174 261.956 346.216C261.345 345.717 260.897 345.173 260.108 344.003C260 343.879 259.886 343.756 259.765 343.644C259.68 343.555 259.584 343.478 259.476 343.413C259.541 340.472 258.603 337.372 257.561 335.753C257.568 335.767 257.574 335.776 257.581 335.792C257.572 335.774 257.558 335.756 257.549 335.738C257.549 335.737 257.55 335.737 257.551 335.736C257.555 335.741 257.558 335.748 257.561 335.753C257.558 335.746 257.555 335.741 257.552 335.735C257.557 335.728 257.563 335.721 257.568 335.715C257.572 335.719 257.577 335.724 257.58 335.728C257.575 335.721 257.574 335.72 257.569 335.713C259.886 332.831 261.958 329.753 263.813 326.554C266.805 330.993 268.807 337.133 268.269 341.237ZM271.106 339.66C271.121 334.118 268.221 327.914 265.155 324.16C265.156 324.157 265.158 324.154 265.159 324.152C265.173 324.166 265.189 324.182 265.199 324.194C265.186 324.179 265.173 324.164 265.16 324.149C266.198 322.136 267.241 320.069 268.075 317.936C271.44 323.469 275.368 333.599 271.106 339.66Z" fill="#797979"/>
<path d="M194.234 40.8808C193.878 40.1328 192.935 39.8988 192.291 39.4458C191.32 39.0088 190.374 38.0958 189.249 38.2968C188.16 38.4628 187.824 39.8598 188.915 40.3138C189.941 40.8198 190.946 41.3688 191.925 41.9618C192.314 42.2308 192.803 42.3338 193.265 42.2298C193.88 42.1058 194.453 41.5418 194.234 40.8808Z" fill="#797979"/>
<path d="M234.482 301.969C233.689 300.692 232.304 299.893 230.886 299.489C230.838 299.466 230.762 299.443 230.677 299.42C232.347 294.622 229.481 289.047 224.168 288.18C220.843 287.677 217.705 289.85 216.397 292.84C216.222 293.336 215.834 293.886 215.628 294.437C211.977 293.661 207.951 294.909 206.398 298.669C205.229 301.223 205.636 304.061 207.836 305.907C209.017 306.947 210.493 307.605 212.01 307.985C212.573 308.119 213.144 308.204 213.72 308.257C213.259 309.349 212.826 310.454 212.539 311.607C211.847 314.207 211.649 317.565 213.97 319.416C216.62 321.375 220.562 321.067 223.105 319.066C225.123 317.355 226.516 314.747 226.838 312.073C231.782 312.069 237.138 306.843 234.482 301.969ZM227.603 309.779C227.244 309.831 227.041 309.857 226.85 309.859C226.726 308.8 226.414 307.767 225.874 306.814C225.132 305.935 223.068 306.464 223.43 307.776C225.07 311.498 223.596 315.494 220.882 317.697C220.528 317.917 220.852 317.766 220.025 318.158C219.894 318.215 219.759 318.262 219.624 318.31C219.299 318.405 218.964 318.467 218.628 318.509C217.525 318.534 217.971 318.582 216.867 318.327C214.658 317.673 214.477 314.882 215.333 311.811C215.629 310.249 216.81 308.529 216.97 307.13C216.643 305.843 215.087 306.185 214.007 306.081C213.842 306.06 213.482 306.014 213.325 305.979C211.752 305.643 211.238 305.403 210.176 304.656C207.648 302.907 208.248 299.158 210.698 297.242C212.556 295.955 215.702 295.885 218.257 298.447C218.303 298.495 218.35 298.546 218.388 298.591C218.728 298.97 219.045 299.425 219.586 299.508C220.509 299.793 221.855 298.867 221.16 297.891C220.393 296.831 219.363 295.999 218.209 295.386C218.934 293.676 219.03 293.315 220.089 291.91C221.451 290.357 223.125 289.962 224.619 290.635C228.139 291.96 229.197 296.564 227.695 299.622C226.671 300.866 228.234 301.831 229.343 301.433C229.532 301.46 229.718 301.493 229.894 301.548C230.913 301.876 231.872 302.274 232.277 303.663C233.082 306.247 230.238 309.416 227.603 309.779Z" fill="#797979"/>
<path d="M155.586 210.13C158.855 201.82 173.071 203.829 169.086 210.38C167.83 212.444 164.005 209.066 159.461 212.005C156.838 213.701 154.702 212.378 155.586 210.13Z" fill="#797979"/>
<path d="M110.333 210.13C107.065 201.82 92.8481 203.829 96.8331 210.38C98.0891 212.444 101.914 209.066 106.458 212.005C109.081 213.701 111.217 212.378 110.333 210.13Z" fill="#797979"/>
</svg>
