<svg width="229" height="48" viewBox="0 0 229 48" fill="none" xmlns="http://www.w3.org/2000/svg">
<path d="M51.1213 13.4036C52.9386 14.1931 56.0623 16.5339 54.0193 19.5815C51.4655 23.391 47.3096 18.4121 47.4757 16.3782C47.6419 14.3443 45.3207 21.9333 41.3452 18.5329C38.1649 15.8126 42.0644 13.2003 44.4117 12.2341C43.0565 10.8376 41.1022 7.6864 44.1269 6.25389C47.1515 4.82139 48.645 7.42818 49.0137 8.91064C50.3998 7.08939 53.723 4.08445 55.9275 6.63466C58.683 9.82241 53.7345 13.6011 51.1213 13.4036Z" fill="#C3E4FF" stroke="#C3E4FF"/>
<path d="M48.134 14.8169C48.1299 14.8205 48.1234 14.8205 48.1198 14.8165C46.9707 13.5468 46.0988 10.4706 48.0869 12.3478C48.2822 12.5323 48.5894 12.5466 48.8291 12.4251C49.8083 11.9287 51.0858 12.2215 48.134 14.8169Z" fill="black" stroke="black"/>
<path d="M13.0456 26.2767C6.38736 27.1633 -2.75208 19.1838 2.62398 10.3176C6.38735 5.29341 15.3615 8.44585 19.1249 15.9329C20.2829 10.1206 28.5095 -5.62755 35.9153 5.29341C41.1263 12.9778 35.3365 17.7061 31.2836 22.1031C31.0877 22.2181 30.8944 22.3287 30.7045 22.4347C34.8538 23.6169 43.0829 29.4495 35.9153 38.3938C33.31 41.6449 24.8182 39.773 22.8883 34.2563C22.8883 40.463 13.0456 49.3292 6.38735 43.7136C0.214785 38.5076 6.38735 30.7102 13.0456 26.2767Z" fill="#C3E4FF" stroke="#C3E4FF"/>
<path d="M21.9873 29.0836C21.9577 29.1155 21.9078 29.1263 21.8686 29.1074C14.6365 25.6331 14.6084 16.0434 20.8644 21.6654C21.0978 21.8752 21.4727 21.839 21.677 21.6007C24.4352 18.3838 30.8277 19.5465 21.9873 29.0836Z" fill="black" stroke="black"/>
<path d="M71.04 42.5H66.864L65.688 38.948H56.832L55.656 42.5H51.456L57.024 25.772H65.496L71.04 42.5ZM60.096 29.156L57.96 35.588H64.56L62.424 29.156H60.096ZM72.9953 42.5V29.852H83.1233V33.02H77.0273V42.5H72.9953ZM94.968 29.444C97.24 29.444 98.912 29.988 99.984 31.076C101.072 32.164 101.616 33.852 101.616 36.14C101.616 38.46 101.072 40.172 99.984 41.276C98.912 42.364 97.24 42.908 94.968 42.908C92.264 42.908 90.44 42.044 89.496 40.316V47.78H85.464V29.852H89.496V31.988C90.424 30.292 92.248 29.444 94.968 29.444ZM93.696 39.764C95.088 39.764 96.08 39.484 96.672 38.924C97.28 38.364 97.584 37.444 97.584 36.164C97.584 34.868 97.288 33.956 96.696 33.428C96.12 32.884 95.136 32.612 93.744 32.612C90.832 32.612 89.376 33.644 89.376 35.708V36.5C89.376 37.524 89.752 38.324 90.504 38.9C91.256 39.476 92.32 39.764 93.696 39.764ZM111.659 42.908C108.843 42.908 106.779 42.364 105.467 41.276C104.155 40.188 103.499 38.476 103.499 36.14C103.499 33.836 104.155 32.148 105.467 31.076C106.779 29.988 108.843 29.444 111.659 29.444C114.443 29.444 116.483 29.988 117.779 31.076C119.091 32.164 119.747 33.852 119.747 36.14C119.747 38.476 119.091 40.188 117.779 41.276C116.483 42.364 114.443 42.908 111.659 42.908ZM111.659 39.716C113.147 39.716 114.195 39.452 114.803 38.924C115.411 38.38 115.715 37.452 115.715 36.14C115.715 34.86 115.411 33.956 114.803 33.428C114.195 32.9 113.147 32.636 111.659 32.636C110.155 32.636 109.091 32.9 108.467 33.428C107.859 33.956 107.555 34.86 107.555 36.14C107.555 37.468 107.859 38.396 108.467 38.924C109.091 39.452 110.155 39.716 111.659 39.716ZM122.336 42.5V25.772H135.68V29.156H126.44V42.5H122.336ZM147.284 34.34V29.852H151.316V42.5H147.284V37.532H141.644V42.5H137.612V29.852H141.644V34.34H147.284ZM161.885 42.908C159.069 42.908 157.005 42.364 155.693 41.276C154.381 40.188 153.725 38.476 153.725 36.14C153.725 33.836 154.381 32.148 155.693 31.076C157.005 29.988 159.069 29.444 161.885 29.444C164.669 29.444 166.709 29.988 168.005 31.076C169.317 32.164 169.973 33.852 169.973 36.14C169.973 38.476 169.317 40.188 168.005 41.276C166.709 42.364 164.669 42.908 161.885 42.908ZM161.885 39.716C163.373 39.716 164.421 39.452 165.029 38.924C165.637 38.38 165.941 37.452 165.941 36.14C165.941 34.86 165.637 33.956 165.029 33.428C164.421 32.9 163.373 32.636 161.885 32.636C160.381 32.636 159.317 32.9 158.693 33.428C158.085 33.956 157.781 34.86 157.781 36.14C157.781 37.468 158.085 38.396 158.693 38.924C159.317 39.452 160.381 39.716 161.885 39.716ZM185.834 29.852H192.866V42.5H188.858L188.834 33.308H188.186L184.49 42.5H180.746L177.122 33.308H176.402V42.5H172.37V29.852H179.474L182.57 38.3L185.834 29.852ZM205.528 29.852H210.952V42.5H206.92V33.476H206.464L201.232 42.5H195.784V29.852H199.816V38.852H200.224L205.528 29.852ZM227.99 42.5H223.622L220.766 37.532H217.91V42.5H213.878V29.852H217.91V34.34H221.126L223.526 29.852H227.798L224.39 36.164L227.99 42.5Z" fill="black"/>
</svg>
