<svg width="77" height="102" viewBox="0 0 77 102" fill="none" xmlns="http://www.w3.org/2000/svg">
<path d="M37.8384 29.2937C37.8384 29.2937 42.4928 -0.506774 57.871 2.25788C73.2488 5.02253 55.1022 25.385 53.5013 34.0071" stroke="#797979" stroke-width="2.53" stroke-miterlimit="10" stroke-linecap="round" stroke-linejoin="round"/>
<path d="M2.12918 84.6511C3.27828 86.1351 49.7056 101.716 51.7743 100.974C53.8429 100.232 72 95.7809 72 92.0709C72 88.361 70.3882 28.7624 69.6987 28.5149C69.0091 28.2679 28.7291 14 28.0395 14C27.35 14 7.87506 19.8531 7.87506 19.8531C7.87506 19.8531 0.980084 83.1671 2.12918 84.6511Z" fill="#DFF0FD"/>
<path d="M54.4238 100.954C57.0555 100.129 75.9772 95.7696 75.9772 92.128C75.9772 88.4371 74.2516 29.1434 73.5135 28.8972C73.2689 28.8157 68.3733 27.2034 61.9094 25.0842L54.1392 28.8086L54.4238 100.954Z" fill="#C3E4FF"/>
<path d="M7.32788 20.2796L54.4866 36.4031L73.1541 28.7783C68.929 27.3856 29.6198 14.4564 28.9151 14.4564C28.1773 14.4564 7.32788 20.2796 7.32788 20.2796Z" fill="#7DA3C2"/>
<path d="M75.9772 92.128C75.9772 92.0277 75.9759 91.8789 75.9734 91.6987L66.588 90.5074L54.4255 100.818L54.4238 100.954C57.0556 100.129 75.9772 95.7696 75.9772 92.128Z" fill="#7DA3C2"/>
<path d="M3.06934 58.8701C3.93042 50.4679 4.9194 41.4671 5.72782 34.2737C6.64449 26.1144 7.32792 20.2799 7.32792 20.2799C7.32792 20.2799 28.1769 14.4568 28.9151 14.4568C29.6533 14.4568 72.7754 28.6516 73.5136 28.8974C73.6858 28.9551 73.9124 32.2352 74.1578 37.2767L74.7455 52.0247" stroke="#797979" stroke-width="1.012" stroke-miterlimit="10"/>
<path d="M72.0835 95.3647C74.3959 94.2947 75.9772 93.1815 75.9772 92.129C75.9772 89.955 74.7357 51.1625 74.7357 51.1625" stroke="#797979" stroke-width="1.012" stroke-miterlimit="10"/>
<path d="M3.24306 57.2028L2.61333 63.3861C1.47888 74.8179 0.711017 84.1883 1.17667 84.7467C2.40684 86.2231 52.11 101.725 54.3245 100.986C55.1095 100.725 58.0585 99.9995 61.5388 99.0076L72.3919 95.237" stroke="#797979" stroke-width="1.012" stroke-miterlimit="10"/>
<path d="M54.4866 36.4032L54.325 100.767C54.3248 100.852 54.4255 100.899 54.4904 100.842L66.4402 90.5179" stroke="#797979" stroke-width="0.759" stroke-miterlimit="10"/>
<path d="M75.9773 92.1282L66.4402 90.518L63.7988 33.372" stroke="#797979" stroke-width="0.759" stroke-miterlimit="10"/>
<path d="M24.4834 32.551C24.4834 32.551 29.1382 2.75055 44.516 5.5152C59.8939 8.27986 41.7472 28.6423 40.1463 37.2644" stroke="#797979" stroke-width="2.53" stroke-miterlimit="10" stroke-linecap="round" stroke-linejoin="round"/>
<path d="M50.0531 60.938C50.0531 60.938 45.9333 58.0196 42.0476 57.9268C36.507 57.7947 31.8467 61.7122 37.4065 69.8306" fill="#DFF0FD"/>
</svg>
