<svg width="24" height="25" viewBox="0 0 24 25" fill="none" xmlns="http://www.w3.org/2000/svg">
<path fill-rule="evenodd" clip-rule="evenodd" d="M12.5495 14.23H14.2624C14.6683 14.23 15.005 13.9 15.005 13.49C15.005 13.07 14.6683 12.74 14.2624 12.74H12.5495V11.01C12.5495 10.6 12.2228 10.27 11.8168 10.27C11.4109 10.27 11.0743 10.6 11.0743 11.01V12.74H9.37129C8.96535 12.74 8.62871 13.07 8.62871 13.49C8.62871 13.9 8.96535 14.23 9.37129 14.23H11.0743V15.96C11.0743 16.37 11.4109 16.7 11.8168 16.7C12.2228 16.7 12.5495 16.37 12.5495 15.96V14.23ZM19.3381 9.52561C19.5708 9.52292 19.8242 9.52 20.0545 9.52C20.302 9.52 20.5 9.72 20.5 9.97V18.01C20.5 20.49 18.5099 22.5 16.0446 22.5H8.17327C5.59901 22.5 3.5 20.39 3.5 17.79V7.01C3.5 4.53 5.5 2.5 7.96535 2.5H13.2525C13.5099 2.5 13.7079 2.71 13.7079 2.96V6.18C13.7079 8.01 15.203 9.51 17.0149 9.52C17.4381 9.52 17.8112 9.52316 18.1377 9.52593C18.3917 9.52809 18.6175 9.53 18.8168 9.53C18.9578 9.53 19.1405 9.52789 19.3381 9.52561ZM19.61 8.0662C18.7961 8.0692 17.8367 8.0662 17.1466 8.0592C16.0516 8.0592 15.1496 7.1482 15.1496 6.0422V3.4062C15.1496 2.9752 15.6674 2.7612 15.9635 3.0722C16.4995 3.6351 17.2361 4.40891 17.9693 5.17913C18.7002 5.94689 19.4277 6.71108 19.9496 7.2592C20.2387 7.5622 20.0268 8.0652 19.61 8.0662Z" fill="black"/>
</svg>
