<svg width="32" height="33" viewBox="0 0 32 33" fill="none" xmlns="http://www.w3.org/2000/svg">
<g clip-path="url(#clip0_129_4474)">
<mask id="mask0_129_4474" style="mask-type:luminance" maskUnits="userSpaceOnUse" x="0" y="0" width="33" height="33">
<path fill-rule="evenodd" clip-rule="evenodd" d="M0 0.5H32.0028V32.5H0V0.5Z" fill="white"/>
</mask>
<g mask="url(#mask0_129_4474)">
<path fill-rule="evenodd" clip-rule="evenodd" d="M14.312 29.4193C15.256 30.3409 16.7759 30.3297 17.7134 29.3873L18.8686 28.2354C19.7645 27.341 21.0029 26.8306 22.2652 26.8306H23.9131C25.2475 26.8306 26.3322 25.7459 26.3322 24.4132V22.7668C26.3322 21.4853 26.8282 20.2806 27.7337 19.3734L28.8857 18.2199C29.3545 17.7495 29.6056 17.1399 29.604 16.4936C29.6024 15.8488 29.3481 15.2424 28.8889 14.7848L27.7353 13.6297C26.8282 12.7162 26.3322 11.513 26.3322 10.2315V8.58836C26.3322 7.25402 25.2475 6.16928 23.9131 6.16928H22.2684C20.9869 6.16928 19.7821 5.6717 18.875 4.77095L17.7198 3.6142C16.7583 2.66225 15.224 2.66705 14.2848 3.6126L13.1345 4.76615C12.2161 5.6733 11.0114 6.16928 9.73465 6.16928H8.08833C6.7556 6.17088 5.67085 7.25562 5.67085 8.58836V10.2283C5.67085 11.5098 5.17327 12.7146 4.27092 13.6233L3.13498 14.7608C3.12378 14.7736 3.11258 14.7832 3.10138 14.7944C2.16223 15.74 2.16703 17.2743 3.11258 18.2135L4.26772 19.3686C5.17327 20.2774 5.67085 21.4821 5.67085 22.7636V24.4132C5.67085 25.7459 6.754 26.8306 8.08833 26.8306H9.73145C11.0146 26.8322 12.2193 27.3298 13.1265 28.2338L14.28 29.3841C14.2896 29.3953 14.3008 29.4065 14.312 29.4193ZM15.9972 32.5005C14.77 32.5005 13.5429 32.0365 12.6037 31.1054C12.5909 31.0926 12.5781 31.0798 12.5653 31.0654L11.4294 29.931C10.9766 29.4814 10.3718 29.2319 9.72867 29.2303H8.08715C5.42968 29.2303 3.26979 27.0688 3.26979 24.4129V22.7634C3.26979 22.1202 3.0186 21.517 2.56743 21.0627L1.41708 19.9139C-0.451622 18.0548 -0.474021 15.0278 1.36109 13.1399C1.37549 13.1255 1.38989 13.1111 1.40429 13.0967L2.56903 11.9287C3.0186 11.4759 3.26979 10.8696 3.26979 10.228V8.58809C3.26979 5.93222 5.42968 3.77073 8.08555 3.76913H9.73347C10.375 3.76913 10.9798 3.51795 11.439 3.06517L12.5829 1.91803C14.4532 0.0349196 17.5107 0.0253201 19.397 1.90043L20.5665 3.06997C21.0193 3.51955 21.6241 3.76913 22.2672 3.76913H23.912C26.5694 3.76913 28.7309 5.93062 28.7309 8.58809V10.2312C28.7309 10.8728 28.9805 11.4791 29.4333 11.9351L30.582 13.0855C31.4924 13.9894 31.998 15.1974 32.0028 16.4853C32.0076 17.7732 31.51 18.9844 30.6028 19.8979L29.4301 21.0675C28.9805 21.5202 28.7309 22.1234 28.7309 22.7666V24.4129C28.7309 27.0688 26.5694 29.2303 23.9136 29.2303H22.264C21.6305 29.2303 21.0113 29.4862 20.5617 29.9326L19.413 31.0814C18.4738 32.0269 17.2355 32.5005 15.9972 32.5005Z" fill="#51A369"/>
</g>
<path fill-rule="evenodd" clip-rule="evenodd" d="M11.8881 21.8134C11.5809 21.8134 11.2737 21.6966 11.0401 21.4614C10.5713 20.9926 10.5713 20.2342 11.0401 19.7654L19.2641 11.5398C19.7329 11.071 20.4929 11.071 20.9617 11.5398C21.4305 12.0086 21.4305 12.7686 20.9617 13.2374L12.7361 21.4614C12.5025 21.6966 12.1953 21.8134 11.8881 21.8134Z" fill="#51A369"/>
<path fill-rule="evenodd" clip-rule="evenodd" d="M20.0064 22.0977C19.1216 22.0977 18.3984 21.3825 18.3984 20.4977C18.3984 19.6129 19.1072 18.8977 19.992 18.8977H20.0064C20.8912 18.8977 21.6064 19.6129 21.6064 20.4977C21.6064 21.3825 20.8912 22.0977 20.0064 22.0977Z" fill="#51A369"/>
<path fill-rule="evenodd" clip-rule="evenodd" d="M12.0074 14.0981C11.1226 14.0981 10.3994 13.3829 10.3994 12.4981C10.3994 11.6133 11.1082 10.8981 11.993 10.8981H12.0074C12.8922 10.8981 13.6074 11.6133 13.6074 12.4981C13.6074 13.3829 12.8922 14.0981 12.0074 14.0981Z" fill="#51A369"/>
</g>
<defs>
<clipPath id="clip0_129_4474">
<rect width="32.0028" height="32" fill="white" transform="translate(0 0.5)"/>
</clipPath>
</defs>
</svg>
