<svg width="20" height="20" viewBox="0 0 20 20" fill="none" xmlns="http://www.w3.org/2000/svg">
<path d="M17.8044 16.8852L15.0545 14.1967L14.9901 14.0986C14.8702 13.9793 14.7064 13.9121 14.5353 13.9121C14.3643 13.9121 14.2004 13.9793 14.0806 14.0986C11.7436 16.2427 8.14252 16.3592 5.6656 14.371C3.18869 12.3827 2.60453 8.90669 4.30055 6.24814C5.99656 3.58958 9.44646 2.57348 12.3623 3.87371C15.2781 5.17394 16.755 8.38703 15.8136 11.3821C15.7458 11.5984 15.8012 11.8337 15.959 11.9993C16.1167 12.1649 16.3529 12.2356 16.5784 12.1849C16.804 12.1341 16.9847 11.9695 17.0525 11.7532C18.1779 8.19892 16.4782 4.37404 13.0529 2.75285C9.62759 1.13165 5.50467 2.20066 3.35124 5.26833C1.19782 8.33601 1.66014 12.4817 4.43914 15.0236C7.21815 17.5655 11.4798 17.7407 14.4673 15.4359L16.9021 17.8164C17.1536 18.0612 17.5601 18.0612 17.8116 17.8164C18.0628 17.5682 18.0628 17.1685 17.8116 16.9202L17.8044 16.8852Z" fill="#797979"/>
</svg>
